<svg id="Layer_1" data-name="Layer 1" xmlns="http://www.w3.org/2000/svg" viewBox="0 0 1080 1313"><defs><style>.cls-1{fill:#424cd4;}.cls-2{fill:#b3b3b3;}.cls-3{fill:#131789;}</style></defs><path class="cls-1" d="M606,1313c-1.4-2.43-2.5-5.1-4.24-7.26-12.73-15.76-25.61-31.39-38.39-47.11-8.59-10.57-17.07-21.23-25.63-31.83q-16.83-20.88-33.72-41.71c-8.14-10.08-16.2-20.23-24.36-30.3-11-13.6-22.14-27.12-33.15-40.72q-12.7-15.69-25.24-31.52C379.51,1029.91,338.08,977,296,924.65Q161,756.86,25.47,589.51q-11.29-14-22.65-28A24.66,24.66,0,0,0,0,559V455q42.69,49.29,85.39,98.58,79.49,91.81,158.94,183.66,80.92,93.53,161.84,187.08,86.18,99.57,172.36,199.13,78.32,90.52,156.58,181.07c2.38,2.75,4.6,5.65,6.89,8.48Z"/><path class="cls-1" d="M1080,318,695.42,102.46C706.84,99.84,717.21,98,727.24,95c8.79-2.63,15.92-1,23.94,3.4Q915.42,188,1080,277Z"/><path class="cls-1" d="M383.94,63.79c5.86-10.4,15.18-17,25.21-22.76,25.24-14.36,53-22.46,80.42-31.07,15.26-4.78,30.74-8.5,46.91-9.09C557.4.11,573,9,581.87,27.39c10.21,21.09,19.66,42.64,28,64.55,21.53,56.82,42.31,113.92,63.18,171,1.71,4.66,4.3,7.08,8.79,9,22.37,9.49,44.47,19.59,66.83,29.07,16.72,7.08,15.94,27.23,9.2,37.38-3.43,5.17-10.22,8.25-15.77,11.84-4.88,3.16-10.14,5.73-15.25,8.53-4.94,2.71-9.9,5.37-15.26,8.27,4.77,12.94,9.48,25.71,14.18,38.48q11.49,31.17,23,62.34c.68,1.87,2.38,4-.69,5.51l-1.92.77q-5.46-15-10.93-29.93c-6.64-18.25-13.24-36.51-20-54.71-.5-1.33-2.77-3.37-3.28-3.12C704.16,390,696.6,394.07,689,398l-2,1-2,1-2,1-2,1c-2.3.15-3.85,0-4.26-3.15-.24-1.85-2.69-3.42-4.15-5.12,1.71-1,3.4-1.93,5.13-2.84q12.38-6.51,24.77-13L710,377l.37.23L710,377c-.67-2.62-1.34-5.23-2.25-8.81l-6.85,4.88c-1.84.63-3.75,1.11-5.52,1.91q-29,13.19-58,26.46c-4.4-13.86-6.82-15.12-20.39-13a111.4,111.4,0,0,1-22.33,1.31c-14.06-.69-27.43-5-40.38-10.19-19.15-7.67-38.07-15.89-57.08-23.88-4.76-2-9.5-4.06-14.87-6.35.6,4.55,1,7.9,1.48,11.25l-1.63.76c-1.2-2.14-2.73-4.17-3.58-6.44q-21.72-58.2-43.29-116.45C424.33,209,413.09,179.59,402.65,150,392.82,122.07,382.3,94.22,383.94,63.79ZM415.08,51,414,52l0,0-2.57.5.14.93,2.08-.3L431,45.33c18.6-6.62,37.07-13.61,55.83-19.74,13.47-4.41,27.32-7.67,41-11.45,2.5-.09,5,0,7.48-.32,16.43-2,29.85,3.92,37,18.45,9.35,19,16.55,39.08,24.67,58.69l-1.12,0c-8.09,0-16.18-.14-24.27,0A290.11,290.11,0,0,0,507,99.19c-1.51.36-2.65,2.26-4,3.44-7.73,2.89-15.69,5.3-23.15,8.76-17.71,8.21-32.77,20.2-46.62,33.85-4.33,4.28-9.29,7.92-14,11.85-5.39-2.37-8.64-5.81-6.31-12.21a4.31,4.31,0,0,0-.35-2.42C406,120.71,399.41,99,392.71,77c0,7.14-1.32,14.61.26,21.41,4,17.25,9.24,34.22,14.21,51.24,1.14,3.92,3.17,7.58,4.8,11.36a36.8,36.8,0,0,0,1.12,5.27q21.21,57.27,42.5,114.52c.91,2.46,1.87,4.9,3,7.79,2-.89,3.65-1.63,5.3-2.31l85.24-35.05c11.68.93,23.37,1.7,35,2.81,14.47,1.37,28.93,3,43.39,4.58,9.19,1,18.37,2,27.55,3.06l5,1.34,10.26,4.28c-.83-2.77-1.22-4.35-1.77-5.86C648.79,207.62,629.28,153.67,609,100c-8.53-22.5-17.82-44.83-28.47-66.38-10.76-21.78-24-26.93-42.8-25.06-15.85,1.58-31.61,5.94-47,10.59-23.22,7-46.4,14.44-67.9,26-2.18,1.17-3.89,3.22-5.81,4.86l0-.07L415,51.08Z"/><path class="cls-2" d="M561.86,573.86c-2,4.92-6.34,6.84-13.13,5.88-9.05-1.27-18.26-1.81-27.1-4-12.95-3.13-24.43-1.07-36.23,5a100.72,100.72,0,0,1-49,11.39,67.86,67.86,0,0,1-27.54-6c-15.8-7.37-31.73-14.47-47.51-21.89-5.83-2.75-11.49-5.92-17.06-9.18-8.72-5.11-18.61-4.44-28-5.85-16.72-2.49-33.49-4.67-50.26-6.8-15-1.9-30-3.46-44.94-5.35-15.95-2-31.87-4.23-47.8-6.32-14.45-1.9-28.94-3.57-43.36-5.65-17.54-2.54-35.1-5.06-52.52-8.29-5.85-1.09-11.4-4.14-16.92-6.65-3.83-1.74-3.26-5.09-.88-7.35a106.4,106.4,0,0,1,13.35-10.79c3.36-2.27,7.32-3.66,11-5.37,15.26-7,30.49-14.05,45.81-20.9,14.34-6.42,28.64-13,43.22-18.8a418.12,418.12,0,0,1,40.22-14.19c15.08-4.3,30.38-7.47,46.28-8.41,26.55-1.58,52.68,1.28,78.9,4.17,14.5,1.6,29.05,2.79,43.57,4.28,4.94.5,9.85,1.33,14.78,2L394.16,440a43.57,43.57,0,0,0-4.33-1c-13.32-1.64-26.62-3.49-40-4.72-7.52-.69-15.42-1.65-22.66-.14-12.21,2.56-23.88,7.71-36.07,10.46-24.11,5.45-48,11.48-71.09,20.48a175.8,175.8,0,0,0-50.52,30c-8,6.85-15.9,13.93-23.91,20.82a73.25,73.25,0,0,1-6.4,4.33c4.85,1,8.48,2.12,12.18,2.56,18.26,2.19,36.55,4.08,54.81,6.31,25.64,3.14,51.26,6.57,76.91,9.68,5.45.67,11.46,1.78,14.18-5.41.35-.94,1.55-1.56,2.6-2.55-2-1.44-3.66-2.73-5.41-3.93-5.19-3.54-10.67-6.72-15.54-10.65-6.56-5.27-6.67-11.21-.74-16.95a29.19,29.19,0,0,1,6.43-4.59c6.94-3.71,14-7.13,21-10.8,9.83-5.2,19.45-10.8,29.41-15.72,11.63-5.74,23.45-11.07,35.32-16.29,7.19-3.16,14.62-5.77,21.94-8.63-.52,1.2-.94,2.45-1.57,3.59-5.26,9.62-10.61,19.18-15.82,28.83-2.24,4.15-1,8.12,2.67,9.66s6.58,0,8.71-3.89c8.63-15.88,17.45-31.66,26.21-47.48a39.36,39.36,0,0,0,6.28-1.19c22.06-7.87,43.93-8.09,65.68,1.23,4.94,2.12,9.93,4.54,15.62,3,3.46,9,7,17.88,10.37,26.88q16.79,45,33.47,90.14c-8,2.15-15,6.32-21.95,10.54l.39,1.86L549,569c3.3,8.75,4.77,9.45,11.49,5.43ZM305.33,541.79,321.2,543C315.65,537.16,310.1,536.7,305.33,541.79Z"/><path class="cls-3" d="M394.16,440l2.58-5.13c2.71-4.57,5.53-9.06,8.1-13.7q18-32.54,35.89-65.14c.62-1.14,1.11-2.35,1.74-3.67-4.1-2.56-7.93-5.21-12-7.44C422.84,340.74,419,334.6,420,325.79c.51-4.33,1.24-8.64,1.87-13,3.19,3.47,6,7.45,9.67,10.26,4.33,3.3,9.41,5.62,14.2,8.3,3.47,1.94,7,4.51,9.73-1.19.53-1.09,2.75-1.37,4.66-2.23-4.4-11.41-8.76-22.68-13.12-34-14.59-39.32-29.31-78.6-43.7-118-9.13-25-19-49.81-23.88-76.12-2.32-12.43-2.89-24.81,4.49-36.12-1.64,30.43,8.88,58.28,18.71,86.16,10.44,29.64,21.68,59,32.6,88.48q21.6,58.24,43.29,116.45c.85,2.27,2.38,4.3,3.58,6.44l1.63-.76c-.44-3.35-.88-6.7-1.48-11.25,5.37,2.29,10.11,4.34,14.87,6.35,19,8,37.93,16.21,57.08,23.88,12.95,5.19,26.32,9.5,40.38,10.19a111.4,111.4,0,0,0,22.33-1.31c13.57-2.08,16-.82,20.39,13-8.08,3-16,6.43-24.28,8.69a69.8,69.8,0,0,1-19.13,2.45c-13.19-.19-25.42-5.28-37.91-8.91l-6-2.62-58.66-24.75,20.24,53.17c.83,2.5,1.65,5,2.48,7.48l4.09,10,7,19.18L549,453.93c6.76-3.18,13.57-6.27,20.27-9.55q51.69-25.29,103.34-50.66c1.46,1.7,3.91,3.27,4.15,5.12.41,3.17,2,3.3,4.26,3.15l0,0c-2.37,1.39-4.66,2.92-7.1,4.14Q625,430.68,576,455.11l-5,3L556.93,465l-26.87,13.56,17,46.34c-3.12,1.87-3.56,4.45-2.31,7.71,1.85,4.8,3.43,9.7,5.25,14.52,3.46,9.11,7,18.19,10.51,27.28-6.73,4-8.2,3.32-11.5-5.42q-2.54-7.49-5.08-15-16.73-45.07-33.47-90.14c-3.36-9-6.91-17.92-10.37-26.88a6.06,6.06,0,0,0-.18-1.48q-12.09-32.53-24.27-65a6.4,6.4,0,0,0-2.8-3.2c-6.05-3.1-12.21-6-18.32-8.91-.5.47-1,.73-1.2,1.14Q432.85,396.74,412.47,434c-8.76,15.82-17.58,31.6-26.21,47.48-2.13,3.91-4.94,5.46-8.71,3.89s-4.91-5.51-2.67-9.66c5.21-9.65,10.56-19.21,15.82-28.83.63-1.14,1.05-2.39,1.57-3.59Z"/><path class="cls-2" d="M571,458.1l5-3c1.32.6,2.58,1.53,4,1.73,21.68,3.13,43.53,3.87,65.37,5,14.14.72,28.23,2.36,42.34,3.62,10.42.94,20.84,1.87,31.25,2.92,5.49.55,11,1.32,16.44,2-1.83,2.63-1.2,4.52,1.76,5.6,2,.72,4,1.31,6,2-2.4.58-4.87,1.89-7.17,1.63-18.64-2-37.26-4.39-55.88-6.64-10.21-1.23-20.41-2.84-30.66-3.49-3.64-.23-7.66,1.42-11.13,3-9.9,4.63-19.61,9.68-29.38,14.58-1.31.66-2.55,1.45-4.88,2.79,3.77,3.12,6.78,6.07,10.24,8.35,5.43,3.58,6.19,8.89.91,12.52-11.32,7.77-22.72,15.45-34.4,22.65-8,4.95-16.6,9-24.93,13.49l-8.85-22-17-46.34L556.93,465c.46.64.77,1.55,1.39,1.88,8.26,4.26,16.52,8.53,24.87,12.6,4.88,2.38,9.42,6.59,15.6,3.35,9.6-5,19.26-10,29.75-15.4-2.4-1-4-2.07-5.63-2.27-9.7-1.18-19.44-2-29.12-3.27C586.16,460.86,578.59,459.37,571,458.1Z"/><path class="cls-1" d="M447,294c4.36,11.27,8.72,22.54,13.12,34-1.91.86-4.13,1.14-4.66,2.23-2.76,5.7-6.26,3.13-9.73,1.19-4.79-2.68-9.87-5-14.2-8.3-3.69-2.81-6.48-6.79-9.67-10.26,4-9.42,13.65-11.78,21.22-16.73C444.34,295.29,445.72,294.71,447,294Z"/><path class="cls-3" d="M743.15,477.92c-2-.65-4-1.24-6-2-3-1.08-3.59-3-1.76-5.6l.07-.1c0-.52.07-1,.1-1.56l-28.4-78-18.09,7.35,0,0c7.59-3.95,15.15-8,22.86-11.68.51-.25,2.78,1.79,3.28,3.12,6.76,18.2,13.36,36.46,20,54.71q5.46,15,10.93,29.93l-.21,1.91Z"/><path class="cls-1" d="M547,524.87l8.85,22c2.46,6.79,4.7,13.68,7.48,20.35,1.22,2.93,1,4.89-1.49,6.68l-1.4.52c-3.5-9.09-7-18.17-10.5-27.28-1.82-4.82-3.4-9.72-5.25-14.52C543.46,529.32,543.9,526.74,547,524.87Z"/><path class="cls-3" d="M630.25,252.86l10.85,3.3c4.8-3.3,4.15-11.76,12.61-11.94L596.94,91c-8.12-19.61-15.32-39.68-24.67-58.69-7.14-14.53-20.56-20.45-37-18.45-2.47.31-5,.23-7.48.32s-5.09-.24-7.4.43c-21.46,6.28-42.95,12.5-64.27,19.24-8.91,2.81-17.45,6.81-26.16,10.27l-12.93,6c1.92-1.64,3.63-3.69,5.81-4.86,21.5-11.6,44.68-19,67.9-26,15.34-4.65,31.1-9,47-10.59,18.84-1.87,32,3.28,42.8,25.06C591.15,55.2,600.44,77.53,609,100c20.31,53.64,39.82,107.59,59.64,161.42.55,1.51.94,3.09,1.77,5.86L660.12,263l-2.73-8.37c-3.84,4.68-3.84,4.68-2.29,7-9.18-1-18.36-2.07-27.55-3.06-14.46-1.56-28.92-3.21-43.39-4.58-11.67-1.11-23.36-1.88-35-2.81l14.52-4.48a26.34,26.34,0,0,0,3.87.8c11.21.69,22.45,1.1,33.64,2C610.88,250.38,620.55,251.75,630.25,252.86Z"/><path class="cls-3" d="M419.31,157.09,412,161c-1.63-3.78-3.66-7.44-4.8-11.36-5-17-10.19-34-14.21-51.24-1.58-6.8-.26-14.27-.26-21.41,6.7,21.95,13.33,43.7,19.94,65.45a4.31,4.31,0,0,1,.35,2.42C410.67,151.28,413.92,154.72,419.31,157.09Z"/><path class="cls-3" d="M595.82,91c-3.94,1.33-7.81,3.57-11.81,3.84-15,1-30.19.78-45.2,2.11-12,1.07-23.84,3.73-35.76,5.69,1.31-1.18,2.45-3.08,4-3.44a290.11,290.11,0,0,1,64.54-8.25C579.64,90.85,587.73,91,595.82,91Z"/><path class="cls-3" d="M702.49,377.89l-1.62-4.8,6.85-4.88c.91,3.58,1.58,6.19,2.25,8.81l0,0Z"/><path class="cls-3" d="M414,52c-.11.38-.23.75-.35,1.13l-2.08.3-.14-.93Z"/><path class="cls-2" d="M518.17,447c8.12,3.19,16.43,5.4,25.27,5.32,1.84,0,3.7,1.07,5.54,1.64l-23.84,12.22Z"/><path class="cls-1" d="M630.25,252.86c-9.7-1.11-19.37-2.48-29.1-3.28-11.19-.92-22.43-1.33-33.64-2a26.34,26.34,0,0,1-3.87-.8c13.09-5.4,26.64-5.41,40.09-2.3C612.74,246.53,621.42,250,630.25,252.86Z"/></svg>