<svg width="233" height="128" viewBox="0 0 233 128" fill="none" xmlns="http://www.w3.org/2000/svg">
<g opacity="0.3">
<rect x="218.603" y="2" width="19" height="61" transform="rotate(48.0487 218.603 2)" fill="#127FFE" fill-opacity="0.2" stroke="#127FFE" stroke-width="3" stroke-linecap="round" stroke-linejoin="round"/>
</g>
<path d="M140.598 62.9463L91.6382 104.786C90.7442 105.55 90.6991 106.917 91.5407 107.738L105.541 121.4C106.286 122.127 107.464 122.161 108.25 121.479L155.47 80.4548C156.297 79.7368 156.392 78.4879 155.685 77.6525L143.423 63.1742C142.707 62.3287 141.44 62.2265 140.598 62.9463Z" fill="#127FFE" fill-opacity="0.2" stroke="#127FFE" stroke-width="4"/>
<rect x="35" y="14" width="149" height="36" rx="18" fill="#646464"/>
<path d="M74.9896 33.112C75.6509 33.304 76.1629 33.64 76.5256 34.12C76.8882 34.6 77.0696 35.1867 77.0696 35.88C77.0696 36.84 76.7122 37.6027 75.9976 38.168C75.2829 38.7227 74.3122 39 73.0856 39H67.6776V27.608H72.9256C74.1096 27.608 75.0429 27.8747 75.7256 28.408C76.4189 28.9307 76.7656 29.6507 76.7656 30.568C76.7656 31.1653 76.6056 31.688 76.2856 32.136C75.9762 32.584 75.5442 32.9093 74.9896 33.112ZM70.1096 32.248H72.5096C73.1496 32.248 73.6242 32.1413 73.9336 31.928C74.2536 31.704 74.4136 31.3627 74.4136 30.904C74.4136 30.4347 74.2536 30.088 73.9336 29.864C73.6242 29.64 73.1496 29.528 72.5096 29.528H70.1096V32.248ZM72.7976 37.08C73.4696 37.08 73.9549 36.968 74.2536 36.744C74.5629 36.5093 74.7176 36.1413 74.7176 35.64C74.7176 35.128 74.5629 34.7547 74.2536 34.52C73.9549 34.2853 73.4696 34.168 72.7976 34.168H70.1096V37.08H72.7976ZM78.4982 27.608H86.3542V29.544H80.9302V32.232H86.0182V34.184H80.9302V37.064H86.3542V39H78.4982V27.608ZM91.5841 39.144C90.7201 39.144 89.8881 39.032 89.0881 38.808C88.2987 38.5733 87.6427 38.248 87.1201 37.832L87.9201 36.04C89.0187 36.808 90.2454 37.192 91.6001 37.192C92.3254 37.192 92.8801 37.08 93.2641 36.856C93.6587 36.6213 93.8561 36.296 93.8561 35.88C93.8561 35.5173 93.6747 35.2347 93.3121 35.032C92.9601 34.8187 92.3361 34.616 91.4401 34.424C90.4374 34.2213 89.6374 33.976 89.0401 33.688C88.4534 33.3893 88.0214 33.032 87.7441 32.616C87.4774 32.1893 87.3441 31.6613 87.3441 31.032C87.3441 30.3493 87.5307 29.736 87.9041 29.192C88.2881 28.648 88.8214 28.2267 89.5041 27.928C90.1867 27.6187 90.9761 27.464 91.8721 27.464C92.6827 27.464 93.4614 27.5813 94.2081 27.816C94.9547 28.0507 95.5521 28.3707 96.0001 28.776L95.2001 30.568C94.1974 29.8 93.0934 29.416 91.8881 29.416C91.2481 29.416 90.7361 29.544 90.3521 29.8C89.9681 30.056 89.7761 30.4027 89.7761 30.84C89.7761 31.096 89.8454 31.3093 89.9841 31.48C90.1334 31.6507 90.3787 31.8053 90.7201 31.944C91.0614 32.072 91.5467 32.2 92.1761 32.328C93.6374 32.648 94.6881 33.064 95.3281 33.576C95.9787 34.088 96.3041 34.7867 96.3041 35.672C96.3041 36.7387 95.8881 37.5867 95.0561 38.216C94.2241 38.8347 93.0667 39.144 91.5841 39.144ZM100.185 29.64H96.6173V27.608H106.281V29.64H102.713V39H100.185V29.64ZM115.452 39.144C114.588 39.144 113.756 39.032 112.956 38.808C112.167 38.5733 111.511 38.248 110.988 37.832L111.788 36.04C112.887 36.808 114.114 37.192 115.468 37.192C116.194 37.192 116.748 37.08 117.132 36.856C117.527 36.6213 117.724 36.296 117.724 35.88C117.724 35.5173 117.543 35.2347 117.18 35.032C116.828 34.8187 116.204 34.616 115.308 34.424C114.306 34.2213 113.506 33.976 112.908 33.688C112.322 33.3893 111.89 33.032 111.612 32.616C111.346 32.1893 111.212 31.6613 111.212 31.032C111.212 30.3493 111.399 29.736 111.772 29.192C112.156 28.648 112.69 28.2267 113.372 27.928C114.055 27.6187 114.844 27.464 115.74 27.464C116.551 27.464 117.33 27.5813 118.076 27.816C118.823 28.0507 119.42 28.3707 119.868 28.776L119.068 30.568C118.066 29.8 116.962 29.416 115.756 29.416C115.116 29.416 114.604 29.544 114.22 29.8C113.836 30.056 113.644 30.4027 113.644 30.84C113.644 31.096 113.714 31.3093 113.852 31.48C114.002 31.6507 114.247 31.8053 114.588 31.944C114.93 32.072 115.415 32.2 116.044 32.328C117.506 32.648 118.556 33.064 119.196 33.576C119.847 34.088 120.172 34.7867 120.172 35.672C120.172 36.7387 119.756 37.5867 118.924 38.216C118.092 38.8347 116.935 39.144 115.452 39.144ZM121.664 27.608H126.832C128.09 27.608 129.066 27.912 129.76 28.52C130.464 29.128 130.816 29.9547 130.816 31C130.816 32.0347 130.464 32.8613 129.76 33.48C129.056 34.088 128.08 34.392 126.832 34.392H124.16V39H121.664V27.608ZM126.512 32.488C127.813 32.488 128.464 31.9973 128.464 31.016C128.464 30.024 127.813 29.528 126.512 29.528H124.16V32.488H126.512ZM137.357 39.144C136.226 39.144 135.24 38.9093 134.397 38.44C133.565 37.96 132.92 37.2773 132.461 36.392C132.013 35.5067 131.789 34.472 131.789 33.288C131.789 32.104 132.013 31.0747 132.461 30.2C132.92 29.3253 133.565 28.6533 134.397 28.184C135.24 27.704 136.226 27.464 137.357 27.464C138.488 27.464 139.469 27.704 140.301 28.184C141.133 28.6533 141.773 29.3253 142.221 30.2C142.669 31.0747 142.893 32.104 142.893 33.288C142.893 34.472 142.669 35.5067 142.221 36.392C141.773 37.2773 141.133 37.96 140.301 38.44C139.469 38.9093 138.488 39.144 137.357 39.144ZM137.357 37.192C138.317 37.192 139.064 36.856 139.597 36.184C140.141 35.512 140.413 34.5467 140.413 33.288C140.413 32.0293 140.141 31.0693 139.597 30.408C139.064 29.7467 138.317 29.416 137.357 29.416C136.397 29.416 135.645 29.7467 135.101 30.408C134.568 31.0693 134.301 32.0293 134.301 33.288C134.301 34.5573 134.568 35.528 135.101 36.2C135.645 36.8613 136.397 37.192 137.357 37.192ZM146.492 29.64H142.924V27.608H152.588V29.64H149.02V39H146.492V29.64Z" fill="white"/>
<path d="M111.476 63L121 45H101L111.476 63Z" fill="#646464" stroke="#646464" stroke-linejoin="round"/>
<g opacity="0.3">
<rect x="17.2383" y="70.2834" width="55" height="19" transform="rotate(48.0487 17.2383 70.2834)" fill="#127FFE" fill-opacity="0.2" stroke="#127FFE" stroke-width="3" stroke-linecap="round" stroke-linejoin="round"/>
</g>
</svg>
