<svg width="52" height="46" viewBox="0 0 52 46" fill="none" xmlns="http://www.w3.org/2000/svg">
<path d="M51.8852 12.2781L47.6222 46H33.2237L28.9781 12.1098H46.5563L50.0305 0L52 0.599092L48.6666 12.253L51.8852 12.2781ZM26.9425 31.788C26.9425 31.788 27.4809 27.415 20.0146 27.415H8.12392C0.668416 27.415 1.196 31.788 1.196 31.788H26.9425ZM1.196 41.6271C1.196 41.6271 0.668416 46 8.12392 46H20.0157C27.482 46 26.9436 41.6271 26.9436 41.6271H1.196ZM25.8256 39.4406C27.0476 39.4406 28.0345 38.2227 28.0345 36.7086C28.0345 35.1857 27.0476 33.9744 25.8256 33.9744H2.21C0.993417 33.9744 0 35.1857 0 36.7086C0 38.2227 0.993417 39.4406 2.21 39.4406H25.8256Z" fill="#8D1EF8"/>
</svg>
