<svg width="70" height="117" viewBox="0 0 70 117" fill="none" xmlns="http://www.w3.org/2000/svg">
<path d="M58.3333 0H11.6667C8.57247 0 5.60501 1.23267 3.41709 3.42685C1.22916 5.62103 0 8.59697 0 11.7V105.3C0 108.403 1.22916 111.379 3.41709 113.573C5.60501 115.767 8.57247 117 11.6667 117H58.3333C61.4275 117 64.395 115.767 66.5829 113.573C68.7708 111.379 70 108.403 70 105.3V11.7C70 8.59697 68.7708 5.62103 66.5829 3.42685C64.395 1.23267 61.4275 0 58.3333 0ZM40.8333 111.15H29.1667V105.3H40.8333V111.15ZM58.3333 99.45H11.6667V17.55H58.3333V99.45Z" fill="#646464"/>
</svg>
