<svg width="70" height="117" viewBox="0 0 70 117" fill="none" xmlns="http://www.w3.org/2000/svg">
<path d="M58.3333 0H11.6667C8.57247 0 5.60501 1.23267 3.41709 3.42685C1.22916 5.62103 0 8.59697 0 11.7V105.3C0 108.403 1.22916 111.379 3.41709 113.573C5.60501 115.767 8.57247 117 11.6667 117H58.3333C61.4275 117 64.395 115.767 66.5829 113.573C68.7708 111.379 70 108.403 70 105.3V11.7C70 8.59697 68.7708 5.62103 66.5829 3.42685C64.395 1.23267 61.4275 0 58.3333 0ZM40.8333 111.15H29.1667V105.3H40.8333V111.15ZM58.3333 99.45H11.6667V17.55H58.3333V99.45Z" fill="#646464"/>
<rect x="28" y="45" width="16" height="15" fill="#127FFE"/>
<path d="M35 36C25.6121 36 18 43.6121 18 53C18 62.3879 25.6121 70 35 70C44.3879 70 52 62.3879 52 53C52 43.6121 44.3879 36 35 36ZM42.3426 47.4484L34.3511 58.5288C34.2394 58.6847 34.0922 58.8117 33.9216 58.8994C33.751 58.987 33.562 59.0327 33.3702 59.0327C33.1784 59.0327 32.9894 58.987 32.8188 58.8994C32.6482 58.8117 32.501 58.6847 32.3893 58.5288L27.6574 51.9717C27.5132 51.7705 27.6574 51.4897 27.904 51.4897H29.6837C30.0708 51.4897 30.4388 51.6757 30.6665 51.9944L33.3683 55.7435L39.3335 47.4712C39.5612 47.1562 39.9254 46.9665 40.3163 46.9665H42.096C42.3426 46.9665 42.4868 47.2473 42.3426 47.4484Z" fill="#D4D6FC"/>
<path d="M35 36C25.6121 36 18 43.6121 18 53C18 62.3879 25.6121 70 35 70C44.3879 70 52 62.3879 52 53C52 43.6121 44.3879 36 35 36ZM42.3426 47.4484L34.3511 58.5288C34.2394 58.6847 34.0922 58.8117 33.9216 58.8994C33.751 58.987 33.562 59.0327 33.3702 59.0327C33.1784 59.0327 32.9894 58.987 32.8188 58.8994C32.6482 58.8117 32.501 58.6847 32.3893 58.5288L27.6574 51.9717C27.5132 51.7705 27.6574 51.4897 27.904 51.4897H29.6837C30.0708 51.4897 30.4388 51.6757 30.6665 51.9944L33.3683 55.7435L39.3335 47.4712C39.5612 47.1562 39.9254 46.9665 40.3163 46.9665H42.096C42.3426 46.9665 42.4868 47.2473 42.3426 47.4484Z" fill="#D0E5FF"/>
</svg>
