<svg width="81" height="71" viewBox="0 0 81 71" fill="none" xmlns="http://www.w3.org/2000/svg">
<path d="M73.4062 35.5H7.59375C5.57976 35.5 3.64826 36.3015 2.22416 37.7281C0.800053 39.1547 0 41.0896 0 43.1071C0 45.1247 0.800053 47.0596 2.22416 48.4862C3.64826 49.9128 5.57976 50.7143 7.59375 50.7143H73.4062C75.4202 50.7143 77.3517 49.9128 78.7758 48.4862C80.2 47.0596 81 45.1247 81 43.1071C81 41.0896 80.2 39.1547 78.7758 37.7281C77.3517 36.3015 75.4202 35.5 73.4062 35.5ZM75.9375 55.7857H5.0625C4.39117 55.7857 3.74734 56.0529 3.27264 56.5284C2.79793 57.0039 2.53125 57.6489 2.53125 58.3214V60.8571C2.53125 63.5472 3.59799 66.1271 5.49679 68.0292C7.3956 69.9314 9.97093 71 12.6562 71H68.3438C71.0291 71 73.6044 69.9314 75.5032 68.0292C77.402 66.1271 78.4688 63.5472 78.4688 60.8571V58.3214C78.4688 57.6489 78.2021 57.0039 77.7274 56.5284C77.2527 56.0529 76.6088 55.7857 75.9375 55.7857ZM9.27703 30.4286H71.723C77.192 30.4286 80.364 23.4712 77.2316 18.4029C70.875 8.11429 56.8819 0.0158482 40.5 0C24.1196 0.0158482 10.125 8.11429 3.7684 18.4014C0.632812 23.4696 3.80795 30.4286 9.27703 30.4286ZM60.75 12.6786C61.2506 12.6786 61.74 12.8273 62.1563 13.1059C62.5726 13.3845 62.897 13.7806 63.0886 14.2439C63.2802 14.7073 63.3303 15.2171 63.2326 15.709C63.1349 16.2009 62.8939 16.6527 62.5399 17.0073C62.1859 17.3619 61.7348 17.6034 61.2438 17.7013C60.7528 17.7991 60.2439 17.7489 59.7813 17.557C59.3188 17.3651 58.9235 17.0401 58.6453 16.6231C58.3672 16.2061 58.2188 15.7158 58.2188 15.2143C58.2188 14.5418 58.4854 13.8968 58.9601 13.4213C59.4348 12.9457 60.0787 12.6786 60.75 12.6786ZM40.5 7.60714C41.0006 7.60714 41.49 7.75586 41.9063 8.03449C42.3226 8.31312 42.647 8.70914 42.8386 9.17248C43.0302 9.63582 43.0803 10.1457 42.9826 10.6376C42.8849 11.1294 42.6439 11.5813 42.2899 11.9359C41.9359 12.2905 41.4848 12.532 40.9938 12.6298C40.5028 12.7277 39.9939 12.6775 39.5313 12.4856C39.0688 12.2936 38.6735 11.9686 38.3953 11.5516C38.1172 11.1346 37.9688 10.6444 37.9688 10.1429C37.9688 9.47034 38.2354 8.82538 38.7101 8.34984C39.1848 7.8743 39.8287 7.60714 40.5 7.60714ZM20.25 12.6786C20.7506 12.6786 21.24 12.8273 21.6563 13.1059C22.0725 13.3845 22.397 13.7806 22.5886 14.2439C22.7802 14.7073 22.8303 15.2171 22.7326 15.709C22.6349 16.2009 22.3939 16.6527 22.0399 17.0073C21.6859 17.3619 21.2348 17.6034 20.7438 17.7013C20.2528 17.7991 19.7439 17.7489 19.2813 17.557C18.8188 17.3651 18.4235 17.0401 18.1453 16.6231C17.8672 16.2061 17.7188 15.7158 17.7188 15.2143C17.7188 14.5418 17.9854 13.8968 18.4601 13.4213C18.9348 12.9457 19.5787 12.6786 20.25 12.6786Z" fill="#646464"/>
</svg>
