<svg width="132" height="99" viewBox="0 0 132 99" fill="none" xmlns="http://www.w3.org/2000/svg">
<path d="M124.406 62.6714H58.5938C56.5798 62.6714 54.6483 63.4729 53.2242 64.8995C51.8001 66.3261 51 68.261 51 70.2785C51 72.2961 51.8001 74.231 53.2242 75.6576C54.6483 77.0842 56.5798 77.8857 58.5938 77.8857H124.406C126.42 77.8857 128.352 77.0842 129.776 75.6576C131.2 74.231 132 72.2961 132 70.2785C132 68.261 131.2 66.3261 129.776 64.8995C128.352 63.4729 126.42 62.6714 124.406 62.6714ZM126.938 82.9571H56.0625C55.3912 82.9571 54.7473 83.2243 54.2726 83.6998C53.7979 84.1753 53.5312 84.8203 53.5312 85.4928V88.0285C53.5312 90.7186 54.598 93.2985 56.4968 95.2006C58.3956 97.1028 60.9709 98.1714 63.6562 98.1714H119.344C122.029 98.1714 124.604 97.1028 126.503 95.2006C128.402 93.2985 129.469 90.7186 129.469 88.0285V85.4928C129.469 84.8203 129.202 84.1753 128.727 83.6998C128.253 83.2243 127.609 82.9571 126.938 82.9571ZM60.277 57.6H122.723C128.192 57.6 131.364 50.6426 128.232 45.5743C121.875 35.2857 107.882 27.1872 91.5 27.1714C75.1196 27.1872 61.125 35.2857 54.7684 45.5728C51.6328 50.641 54.8079 57.6 60.277 57.6ZM111.75 39.85C112.251 39.85 112.74 39.9987 113.156 40.2773C113.573 40.5559 113.897 40.952 114.089 41.4153C114.28 41.8786 114.33 42.3885 114.233 42.8804C114.135 43.3722 113.894 43.8241 113.54 44.1787C113.186 44.5333 112.735 44.7748 112.244 44.8727C111.753 44.9705 111.244 44.9203 110.781 44.7284C110.319 44.5364 109.923 44.2114 109.645 43.7944C109.367 43.3774 109.219 42.8872 109.219 42.3857C109.219 41.7132 109.485 41.0682 109.96 40.5927C110.435 40.1171 111.079 39.85 111.75 39.85ZM91.5 34.7785C92.0006 34.7785 92.49 34.9272 92.9063 35.2059C93.3226 35.4845 93.647 35.8805 93.8386 36.3439C94.0302 36.8072 94.0803 37.3171 93.9826 37.8089C93.8849 38.3008 93.6439 38.7526 93.2899 39.1073C92.9359 39.4619 92.4848 39.7034 91.9938 39.8012C91.5028 39.8991 90.9939 39.8489 90.5313 39.6569C90.0688 39.465 89.6735 39.14 89.3953 38.723C89.1172 38.306 88.9688 37.8158 88.9688 37.3142C88.9688 36.6417 89.2354 35.9968 89.7101 35.5212C90.1848 35.0457 90.8287 34.7785 91.5 34.7785ZM71.25 39.85C71.7506 39.85 72.24 39.9987 72.6563 40.2773C73.0725 40.5559 73.397 40.952 73.5886 41.4153C73.7802 41.8786 73.8303 42.3885 73.7326 42.8804C73.6349 43.3722 73.3939 43.8241 73.0399 44.1787C72.6859 44.5333 72.2348 44.7748 71.7438 44.8727C71.2528 44.9705 70.7439 44.9203 70.2813 44.7284C69.8188 44.5364 69.4235 44.2114 69.1453 43.7944C68.8672 43.3774 68.7188 42.8872 68.7188 42.3857C68.7188 41.7132 68.9854 41.0682 69.4601 40.5927C69.9348 40.1171 70.5787 39.85 71.25 39.85Z" fill="#646464"/>
<circle cx="51.0815" cy="34.6028" r="24" transform="rotate(15.5275 51.0815 34.6028)" fill="#127FFE" fill-opacity="0.2" stroke="#127FFE" stroke-width="4"/>
<path d="M30.0001 50.1714L5.00014 67.1714" stroke="#127FFE" stroke-width="8" stroke-linecap="round"/>
</svg>
